PathFileType	4	(X/Y/Z)	C:/Users/opensim2020/Desktop/walking_exp_matlab/subject06_walking15_straight_03.trc	
DataRate	CameraRate	NumFrames	NumMarkers	Units	OrigDataRate	OrigDataStartFrame	OrigNumFrames	
100.00	100.00	9	47	mm	100.00	2257	193	
Frame#	Time	LFHD			RFHD			LBHD			RBHD			C7			T10			CLAV			STRN			RBAK			LSHO			LUPA			LELB			LFRM			LWRA			LWRB			LFIN			RSHO			RUPA			RELB			RFRM			RWRA			RWRB			RFIN			LASI			RASI			LPSI			RPSI			LTHI			LKNE			LTIB			LANK			LHEE			LTOE			RTHI			RKNE			RTIB			RANK			RHEE			RTOE			*39			*40			*41			*42			*43			*44			*45			*46			
		X1	Y1	Z1	X2	Y2	Z2	X3	Y3	Z3	X4	Y4	Z4	X5	Y5	Z5	X6	Y6	Z6	X7	Y7	Z7	X8	Y8	Z8	X9	Y9	Z9	X10	Y10	Z10	X11	Y11	Z11	X12	Y12	Z12	X13	Y13	Z13	X14	Y14	Z14	X15	Y15	Z15	X16	Y16	Z16	X17	Y17	Z17	X18	Y18	Z18	X19	Y19	Z19	X20	Y20	Z20	X21	Y21	Z21	X22	Y22	Z22	X23	Y23	Z23	X24	Y24	Z24	X25	Y25	Z25	X26	Y26	Z26	X27	Y27	Z27	X28	Y28	Z28	X29	Y29	Z29	X30	Y30	Z30	X31	Y31	Z31	X32	Y32	Z32	X33	Y33	Z33	X34	Y34	Z34	X35	Y35	Z35	X36	Y36	Z36	X37	Y37	Z37	X38	Y38	Z38	X39	Y39	Z39	X40	Y40	Z40	X41	Y41	Z41	X42	Y42	Z42	X43	Y43	Z43	X44	Y44	Z44	X45	Y45	Z45	X46	Y46	Z46	X47	Y47	Z47	

121	1.200	1356.77795	75.66814	1639.76001	1488.61975	87.07189	1640.37378	1372.93372	-55.71254	1583.00232	1501.97168	-43.39606	1588.81580	1437.44836	-48.56566	1433.14307	1457.04236	-91.75983	1106.29468	1438.11816	62.18405	1356.14917	1443.07019	100.94846	1184.16040	1529.25647	-121.96433	1269.83911	1276.15344	0.08297	1379.64563	1214.32617	-67.91225	1190.62329	1209.50342	-115.92017	1088.72681	1184.16150	-156.24394	944.90967	1213.40869	-139.62044	812.36383	1187.85095	-202.47974	835.11743	1181.41467	-200.84998	744.00055	1597.80090	18.58668	1397.82141	1705.49976	-12.54093	1210.46423	1729.85608	9.17641	1095.48193	1742.57776	80.10462	1003.60510	1695.49329	204.15953	928.19574	1739.59766	164.07350	896.92346	1734.29089	237.52765	857.89020	1356.51208	94.07459	951.14435	1574.68884	75.47313	951.19525	1368.83105	-67.28770	969.74280	1536.69897	-74.62263	974.31030	1287.10889	93.82188	638.38336	1320.33069	147.50027	488.20743	1326.90881	182.23206	234.00423	1368.87268	232.27762	68.76380	1416.39368	197.47406	46.47649	1373.40149	378.14590	74.95034	1611.18872	-29.53294	614.76044	1587.97314	-54.07799	489.93964	1570.45056	-210.61511	266.87143	1518.36499	-309.18527	110.95016	1472.65454	-355.66562	104.25839	1522.48560	-178.50299	35.58430	1421.11902	-20.47328	1681.65466																					 
122	1.210	1356.10437	85.99959	1639.70166	1488.05225	97.56180	1640.30798	1372.37964	-45.31091	1582.64722	1501.43140	-32.87882	1588.43945	1436.58887	-37.67437	1432.61829	1456.16675	-79.62946	1105.52722	1437.31592	73.22169	1356.05505	1442.29492	112.60615	1184.18030	1528.26270	-110.84314	1269.03638	1275.35742	11.12532	1379.59790	1213.42920	-56.45454	1190.43445	1208.58398	-103.92928	1088.33704	1183.36792	-143.78728	944.34186	1213.12451	-126.94222	811.88324	1187.13965	-189.72235	834.40692	1180.83972	-187.76787	743.32117	1597.12292	29.23939	1397.40637	1704.58801	-1.67649	1209.77625	1728.69641	19.78195	1094.55884	1741.91772	90.11853	1001.84760	1695.35010	213.10822	924.47406	1739.33154	172.33136	893.94269	1734.52808	245.39699	853.90796	1356.05530	107.01569	950.96942	1574.30127	87.74580	951.08099	1368.00964	-54.54916	969.57806	1536.00488	-62.20492	973.84100	1287.08765	106.83341	638.46680	1319.91077	159.33379	487.85010	1327.21155	191.12213	233.30717	1369.31238	235.63199	67.76229	1416.95300	199.38611	47.97310	1374.85144	381.79877	64.48971	1611.52771	-16.46430	614.06915	1588.87903	-40.29651	488.98242	1571.24561	-202.19394	269.62744	1519.34021	-305.34796	116.73325	1473.65137	-352.04233	112.16074	1522.38086	-178.06923	35.69106	1420.55054	-10.16582	1681.36328																					 
123	1.220	1355.47815	96.33982	1640.29089	1487.41968	107.93957	1640.78748	1371.79919	-34.75678	1582.70410	1500.85339	-22.31019	1588.44116	1435.76428	-27.00819	1432.74133	1455.44104	-67.50938	1105.18848	1436.61523	84.30561	1356.38806	1441.51367	124.06952	1184.51233	1526.92798	-99.81668	1268.60730	1274.47375	22.21242	1379.79321	1212.47595	-44.48369	1190.30591	1207.60156	-91.61121	1087.99438	1182.60144	-130.66373	943.70392	1212.92065	-113.60558	811.31232	1186.31360	-176.02306	833.58435	1180.33521	-173.76949	742.51550	1596.48657	39.97301	1397.32019	1703.55127	9.08158	1209.28760	1727.54968	30.49670	1093.82825	1741.03577	99.66708	999.99530	1695.21716	221.61063	920.53625	1739.10107	180.18146	890.81281	1734.70789	252.60779	849.60443	1355.66724	119.76849	951.32782	1573.82983	100.28281	951.28107	1367.28113	-41.93250	969.95013	1535.41772	-49.74927	973.63763	1286.75403	119.77413	639.17853	1319.42639	170.76584	488.37228	1327.09973	199.51892	233.80284	1368.79504	238.14819	67.43521	1416.12183	201.36841	49.25921	1376.80005	384.67056	57.86665	1611.90417	-2.76422	613.43347	1589.73267	-25.57188	488.01013	1571.77539	-192.75121	272.73251	1520.25098	-300.39752	123.23981	1474.52747	-346.60690	120.79763	1522.35901	-177.52539	35.77268	1420.04004	0.05356	1681.51099																					 
124	1.230	1354.93164	106.74827	1641.39758	1486.80115	118.34013	1641.80847	1371.20789	-24.20257	1583.30554	1500.18970	-11.67403	1588.91296	1434.91467	-16.03472	1433.47266	1454.89856	-55.68490	1105.47607	1435.82153	95.34068	1357.17566	1440.66431	135.39806	1185.28577	1525.56970	-88.72065	1268.81104	1273.53943	33.42760	1380.30469	1211.41858	-32.20340	1190.35571	1206.48682	-78.65049	1087.72559	1181.67517	-116.70426	943.07440	1212.60425	-99.21299	810.90808	1185.66711	-161.52914	832.76703	1179.80762	-158.70419	741.74011	1595.93494	50.85680	1397.69763	1702.33643	19.79059	1209.07446	1726.38599	41.13066	1093.29187	1739.98535	108.70908	998.13574	1695.04541	229.67847	916.41907	1738.90247	187.51103	887.55139	1734.96021	259.07755	845.02539	1355.10828	132.42506	952.35883	1573.21948	112.86819	951.89465	1366.84753	-29.63269	971.11810	1535.04102	-37.19867	973.59344	1286.33240	132.65517	640.99426	1319.00793	182.12238	489.71057	1326.16321	207.13380	234.97050	1368.38257	241.91550	67.39424	1414.97156	203.53711	50.62957	1377.66577	387.55048	54.13309	1612.34534	11.72258	613.00220	1590.49841	-9.79440	487.14551	1572.26184	-182.02684	276.35297	1520.87781	-294.09073	130.45915	1475.27930	-339.83984	130.40718	1522.10034	-176.59364	35.91980	1419.50293	10.26493	1682.19885																					 
125	1.240	1354.37354	117.28501	1642.77380	1486.27649	128.84836	1643.04126	1370.52649	-13.46861	1584.26831	1499.59473	-1.06301	1589.78369	1434.00574	-4.66541	1434.67261	1454.47437	-43.81097	1106.28308	1435.20728	106.40949	1358.34485	1439.80261	146.57967	1186.39734	1524.48303	-77.52634	1269.45850	1272.63049	44.82518	1381.24316	1210.44165	-19.46211	1190.61182	1205.39990	-65.16957	1087.66943	1180.86548	-102.00549	942.60913	1212.31531	-83.85258	810.72443	1184.83777	-146.14233	832.06140	1179.33154	-142.49919	741.06409	1595.42505	62.01831	1398.47192	1700.93445	30.53334	1209.35083	1725.15930	51.89925	1093.15564	1738.91821	117.66030	996.45575	1695.01929	237.10071	912.13953	1738.48291	194.03584	884.31006	1735.82349	265.34641	840.68231	1354.52588	144.99307	954.17786	1572.55762	125.69135	952.84143	1366.90088	-17.51284	972.76660	1534.90369	-24.47065	973.77954	1286.21729	145.38698	643.67194	1318.56116	193.25130	491.37396	1324.90723	214.07860	236.32582	1367.94202	244.62029	67.66229	1414.37939	205.74327	51.79455	1377.95825	389.93130	50.79446	1612.80798	27.01424	612.79907	1591.29480	7.32486	486.44659	1572.72827	-169.67163	280.22110	1521.29724	-286.26019	138.19722	1475.47815	-331.15244	140.48312	1521.47058	-175.13728	36.35453	1418.95764	20.64988	1683.22180																					 
126	1.250	1353.86548	127.84592	1644.22778	1485.77332	139.37936	1644.39392	1369.85083	-2.66460	1585.50452	1498.92090	9.57815	1590.89758	1433.34839	6.35246	1436.03259	1454.31018	-32.31138	1107.51306	1434.49280	117.37446	1359.65088	1438.95337	157.71352	1187.81519	1523.54919	-66.08578	1270.47595	1271.92383	56.24817	1382.54614	1209.47571	-6.40501	1191.10437	1204.33154	-51.09586	1087.74023	1179.91345	-86.47025	942.34082	1211.63928	-66.98319	810.89532	1183.94495	-129.74840	831.31372	1178.69336	-125.27451	740.40741	1594.87939	73.32311	1399.63306	1699.40515	41.28297	1210.05908	1723.47803	62.52021	1093.41516	1737.75928	126.29086	995.14514	1695.05359	243.85896	907.80566	1738.02380	200.12881	881.04260	1735.59644	269.61951	835.59534	1353.78381	157.58699	956.65479	1571.73425	138.45450	954.04663	1367.23633	-5.60468	974.50208	1534.95825	-11.70911	974.19897	1286.07629	157.72275	646.40179	1318.05298	203.51131	492.97888	1323.76379	220.66875	237.03572	1367.75464	246.36877	67.71233	1413.91321	206.86346	52.56421	1378.05347	390.98950	47.75256	1613.23730	42.98156	612.84851	1592.68372	24.82572	486.30331	1573.18176	-155.92958	284.39874	1521.46338	-276.83502	146.27927	1475.27759	-320.61700	151.11003	1521.05676	-173.32288	36.64545	1418.48083	31.14775	1684.43811																					 
127	1.260	1353.38721	138.51373	1645.75879	1485.27673	149.95972	1645.78748	1369.28394	7.99543	1586.78931	1498.33838	20.25664	1592.06384	1432.74731	17.28699	1437.50757	1454.11389	-20.73005	1108.90271	1433.84094	128.25992	1361.10046	1438.04712	168.92982	1189.37036	1522.96069	-54.78949	1271.87451	1271.20813	67.54214	1384.11450	1208.40735	7.04315	1191.80518	1203.25708	-36.60866	1088.00708	1179.28833	-69.85694	941.96649	1211.77014	-49.63678	810.98547	1182.99951	-112.35281	830.58838	1178.15320	-107.01224	739.80518	1594.15198	84.66958	1401.00610	1697.87500	52.07480	1211.08887	1721.55420	73.13742	1094.05615	1736.54517	134.79739	994.08429	1695.10535	250.09778	903.45404	1737.32056	205.33961	877.88538	1735.88306	273.70511	830.70465	1352.98218	169.62138	959.26813	1570.70837	151.11224	955.38983	1367.56335	6.27506	976.22168	1535.05835	0.94360	974.79974	1285.89209	169.44650	648.76086	1317.44958	213.07573	494.21777	1323.47107	226.52742	237.28423	1367.93616	247.56348	67.66296	1413.87183	207.51581	53.16155	1378.19580	392.13467	46.22014	1613.76794	59.35458	613.14130	1594.42822	43.34309	486.31339	1573.64209	-141.36949	289.05780	1521.64685	-266.18069	154.91278	1474.78772	-308.42383	162.31241	1520.55383	-172.15630	36.68102	1418.00940	41.69019	1685.79480																					 
128	1.270	1352.94470	149.26239	1647.31763	1484.84436	160.63066	1647.23022	1368.77393	18.72160	1588.12830	1497.77844	30.96791	1593.34326	1432.12817	28.17109	1438.66260	1453.87219	-9.30602	1110.41479	1433.20093	139.23003	1362.66479	1437.11865	180.26294	1190.96765	1522.67200	-43.44902	1273.38562	1270.62378	78.73761	1385.86829	1207.53418	20.61342	1192.67224	1202.14832	-21.66696	1088.37561	1178.23645	-52.96397	941.89441	1211.56763	-31.39493	811.27423	1181.77856	-93.98666	830.06616	1177.54248	-87.54732	739.22559	1593.36621	95.94366	1402.50928	1696.47876	63.05263	1212.31628	1719.48621	83.63825	1094.91541	1735.20776	142.97174	993.21161	1695.09668	255.85808	899.19733	1737.03247	210.15167	874.95996	1736.12463	277.15866	825.91101	1351.89673	181.43488	961.73669	1569.57312	163.57845	956.77332	1367.73303	18.24972	977.93250	1535.04517	13.54731	975.58105	1285.62500	180.00494	650.46240	1316.86719	222.06187	495.08432	1323.11243	231.13498	237.19351	1368.26636	248.82509	67.75689	1414.01453	208.27660	53.70884	1378.71448	393.11240	44.95007	1614.41431	76.03745	613.51758	1596.65002	62.48389	486.47403	1574.54285	-125.95335	293.95953	1522.07654	-254.21616	163.82996	1474.57581	-294.57095	173.56416	1521.12268	-169.22542	38.22849	1417.54846	52.33327	1687.16736																					 
129	1.280	1352.50281	160.01472	1648.73438	1484.39514	171.37425	1648.59192	1368.27649	29.50421	1589.62671	1497.26978	41.71975	1594.74744	1431.58850	39.01107	1439.83667	1453.51282	2.36280	1111.77148	1432.43848	150.12306	1364.10376	1436.25317	191.70587	1192.58447	1522.39575	-32.01017	1274.74805	1270.13892	89.91092	1387.71692	1206.48230	34.63030	1193.57532	1200.99744	-6.49863	1088.84509	1177.22302	-35.25436	941.86688	1211.36877	-12.17146	811.57117	1180.49524	-74.68499	829.35461	1176.94873	-67.08874	738.60840	1592.56238	107.12228	1404.01648	1695.23816	74.23170	1213.61499	1717.42285	94.06340	1095.85217	1733.73828	150.72699	992.38757	1694.18835	260.81061	894.47626	1736.33997	214.53154	872.07935	1736.15039	280.02185	821.07721	1350.72375	192.96777	963.88898	1568.34180	175.78650	958.07922	1367.68713	30.18422	979.71161	1534.84241	25.92778	976.54901	1285.15320	189.63594	651.52722	1316.38208	230.46416	495.59232	1323.27063	235.42149	237.44632	1368.41797	249.89427	67.81221	1414.13892	208.86742	54.10329	1379.73206	393.92569	43.97427	1615.31384	92.79464	613.91718	1599.01367	81.94629	486.60202	1575.79358	-109.68109	299.04974	1522.93689	-241.35651	172.71571	1474.89319	-279.92004	184.77271	1520.97571	-166.60706	39.66766	1417.11316	63.14495	1688.60913																					 
